<?xml version="1.0" encoding="UTF-8"?>
<svg id="Layer_1" data-name="Layer 1" xmlns="http://www.w3.org/2000/svg" viewBox="0 0 700 700">
  <defs>
    <style>
      .cls-1 {
        fill: #a1a1a1;
      }

      .cls-1, .cls-2 {
        stroke-width: 0px;
      }

      .cls-2 {
        fill: #1c1c1c;
      }

      .cls-3 {
        opacity: .3;
      }
    </style>
  </defs>
  <g class="cls-3">
    <path class="cls-2" d="M0,253.33C0,164.66,0,120.32,17.26,86.45c15.18-29.79,39.4-54.01,69.19-69.19C120.32,0,164.66,0,253.33,0h193.33c88.67,0,133.01,0,166.88,17.26,29.79,15.18,54.02,39.4,69.2,69.19,17.26,33.87,17.26,78.21,17.26,166.88v193.33c0,88.67,0,133.01-17.26,166.88-15.18,29.79-39.4,54.02-69.2,69.2-33.87,17.26-78.21,17.26-166.88,17.26h-193.33c-88.67,0-133.01,0-166.88-17.26-29.79-15.18-54.01-39.4-69.19-69.2C0,579.68,0,535.34,0,446.67v-193.33Z"/>
    <path class="cls-1" d="M366.16,205.85l-87.34,147.86,93.45,157.01c1.94,3.56,0,4.35-2.82,4.35h-66.68c-4.7,0-7.98-.17-9.86-3.38-6.27-12.52-12.53-24.97-18.79-37.33-6.26-12.36-12.92-24.96-19.95-37.81-7.05-12.84-14.01-25.84-20.9-39.01-6.26,12.85-13.23,25.69-19.96,38.53-6.73,12.85-13.39,25.61-19.96,38.29-6.57,12.69-13.3,25.29-20.19,37.81-1.26,2.89-3.45,3.19-6.58,3.19h-64.33c-2.53,0-2.83-1.9-1.41-4.15l90.63-152.67-88.28-153.16c-1.6-2.18-.22-4.51,2.35-4.33h66.21c2.87-.16,5.4.92,7.04,3.37,5.63,12.85,11.9,25.69,18.78,38.53,6.88,12.85,13.85,25.53,20.9,38.05,7.05,12.52,14.01,25.2,19.96,38.05,6.26-13.16,12.6-26.01,19.02-38.53,6.42-12.52,12.99-25.12,19.72-37.81,6.73-12.68,13.23-25.28,19.49-37.81.83-2.75,2.82-4.14,5.64-3.85h61.51c2.35,0,3.32,3.21,2.35,4.82Z"/>
    <path class="cls-1" d="M500.93,521.31c-41.41.65-84.79-16.4-106.6-54.18-10.64-18.14-15.97-40.85-15.96-68.15-.18-22.11,5.33-43.87,15.96-63.09,27.44-49.05,82.73-67.43,135.24-62.61v-94.88c0-2.24.94-3.37,2.82-3.37h59.17c1.62-.24,3.05,1.23,2.82,2.89v284.64c0,11.74,1.16,23.45,1.88,35.16.11,2-1.04,3.98-2.82,4.82-29.23,12.5-60.86,18.64-92.51,18.78ZM529.57,461.59v-131.48c-42.89-11.91-84.53,20.75-84.53,65.98-1.02,46.76,39.29,79.07,84.53,65.5Z"/>
  </g>
</svg>