<svg width="800" height="800" viewBox="0 0 800 800" fill="none" xmlns="http://www.w3.org/2000/svg">
<rect width="800" height="800" fill="#1E1E1E"/>
<g style="mix-blend-mode:luminosity">
<path d="M50 303.332C50 214.658 50 170.321 67.2572 136.451C82.4372 106.659 106.659 82.4372 136.451 67.2572C170.321 50 214.658 50 303.332 50H496.667C585.342 50 629.68 50 663.547 67.2572C693.34 82.4372 717.562 106.659 732.742 136.451C750 170.321 750 214.658 750 303.332V496.667C750 585.342 750 629.68 732.742 663.547C717.562 693.34 693.34 717.562 663.547 732.742C629.68 750 585.342 750 496.667 750H303.332C214.658 750 170.321 750 136.451 732.742C106.659 717.562 82.4372 693.34 67.2572 663.547C50 629.68 50 585.342 50 496.667V303.332Z" fill="#470137"/>
<path d="M416.163 255.846L328.82 403.706L422.265 560.714C424.208 564.274 422.265 565.061 419.45 565.061H352.77C348.073 565.061 344.785 564.891 342.908 561.679C336.64 549.156 330.38 536.714 324.123 524.351C317.858 511.994 311.205 499.391 304.168 486.544C297.123 473.706 290.158 460.704 283.27 447.534C277.005 460.379 270.038 473.221 263.313 486.064C256.578 498.909 249.925 511.671 243.355 524.351C236.782 537.039 230.051 549.641 223.164 562.159C221.909 565.049 219.715 565.346 216.588 565.346H152.257C149.729 565.346 149.424 563.446 150.848 561.196L241.477 408.521L153.195 255.364C151.592 253.179 152.972 250.851 155.544 251.029H221.754C224.621 250.869 227.155 251.949 228.798 254.401C234.433 267.246 240.694 280.091 247.581 292.931C254.463 305.776 261.43 318.461 268.478 330.979C275.523 343.501 282.488 356.184 288.435 369.029C294.693 355.866 301.033 343.024 307.453 330.499C313.868 317.976 320.44 305.374 327.175 292.691C333.905 280.011 340.4 267.409 346.663 254.884C347.495 252.136 349.485 250.744 352.298 251.029H413.813C416.163 251.029 417.133 254.236 416.163 255.846Z" fill="#FF61F6"/>
<path d="M550.927 571.313C509.515 571.96 466.137 554.908 444.332 517.13C433.687 498.992 428.365 476.277 428.367 448.98C428.19 426.875 433.697 405.113 444.332 385.887C471.775 336.833 527.06 318.452 579.572 323.277V228.397C579.572 226.154 580.512 225.025 582.39 225.025H641.557C643.175 224.788 644.605 226.256 644.375 227.915V512.555C644.375 524.297 645.54 536 646.255 547.713C646.37 549.713 645.212 551.693 643.435 552.53C614.202 565.035 582.57 571.168 550.927 571.313ZM579.572 511.59V380.107C536.682 368.193 495.042 400.86 495.047 446.09C494.03 492.852 534.34 525.16 579.572 511.59Z" fill="#FF61F6"/>
</g>
</svg>
