<svg width="800" height="800" viewBox="0 0 800 800" fill="none" xmlns="http://www.w3.org/2000/svg">
<rect width="800" height="800" fill="#1E1E1E"/>
<g style="mix-blend-mode:luminosity" clip-path="url(#clip0_154_2643)">
<path d="M399.654 797.977L168.78 733.884L117.33 156.82H682.67L631.167 733.795L399.654 797.977Z" fill="#264DE4"/>
<path d="M587.074 697.057L631.085 204.004H400V748.919L587.074 697.057Z" fill="#2965F1"/>
<path d="M235.278 418.03L241.62 488.805H400V418.03H235.278ZM222.531 274.781L228.964 345.556H400V274.781H222.531ZM400 601.839L399.69 601.921L320.869 580.638L315.829 524.193H244.782L254.697 635.32L399.674 675.564L400 675.475V601.839Z" fill="#EBEBEB"/>
<path d="M250.38 0H336.098V35.8471H286.227V71.6942H336.102V107.539H250.38V0ZM353.243 0H438.963V31.1712H389.09V37.405H438.963V109.099H353.246V76.3657H403.118V70.1319H353.241L353.243 0ZM456.109 0H541.828V31.1712H491.956V37.405H541.828V109.099H456.109V76.3657H505.981V70.1319H456.111V0H456.109Z" fill="black"/>
<path d="M564.27 418.03L577.046 274.781H399.756V345.556H499.484L493.044 418.03H399.756V488.805H486.907L478.69 580.594L399.754 601.899V675.53L544.846 635.32L545.91 623.362L562.544 437.035L564.27 418.03Z" fill="white"/>
</g>
<defs>
<clipPath id="clip0_154_2643">
<rect width="800" height="800" fill="white"/>
</clipPath>
</defs>
</svg>
