<?xml version="1.0" encoding="UTF-8"?>
<svg id="Layer_1" data-name="Layer 1" xmlns="http://www.w3.org/2000/svg" viewBox="0 0 455 700">
  <defs>
    <style>
      .cls-1 {
        fill: #8c8c8c;
      }

      .cls-1, .cls-2, .cls-3, .cls-4, .cls-5 {
        stroke-width: 0px;
      }

      .cls-2 {
        fill: #939393;
      }

      .cls-3 {
        fill: #9b9b9b;
      }

      .cls-4 {
        fill: #7a7a7a;
      }

      .cls-5 {
        fill: #818181;
      }

      .cls-6 {
        opacity: .3;
      }
    </style>
  </defs>
  <g class="cls-6">
    <path class="cls-2" d="M227.5,350c0-64.45,50.95-116.65,113.75-116.65s113.75,52.15,113.75,116.65-50.9,116.65-113.75,116.65-113.75-52.15-113.75-116.65Z"/>
    <path class="cls-1" d="M0,583.35c0-64.45,50.95-116.7,113.75-116.7h113.75v116.7c0,64.4-50.95,116.65-113.75,116.65S0,647.75,0,583.35Z"/>
    <path class="cls-3" d="M227.5,0v233.35h113.75c62.85,0,113.75-52.25,113.75-116.7S404.1,0,341.25,0h-113.75Z"/>
    <path class="cls-4" d="M0,116.65c0,64.45,50.95,116.7,113.75,116.7h113.75V0h-113.75C50.95,0,0,52.25,0,116.65Z"/>
    <path class="cls-5" d="M0,350c0,64.45,50.95,116.65,113.75,116.65h113.75v-233.3h-113.75C50.95,233.35,0,285.5,0,350Z"/>
  </g>
</svg>