<svg width="800" height="800" viewBox="0 0 800 800" fill="none" xmlns="http://www.w3.org/2000/svg">
<rect width="800" height="800" fill="#1E1E1E"/>
<g style="mix-blend-mode:luminosity">
<path d="M427.5 400.002C427.5 335.552 478.45 283.352 541.25 283.352C604.1 283.352 655 335.502 655 400.002C655 464.452 604.1 516.652 541.25 516.652C478.5 516.652 427.5 464.502 427.5 400.002Z" fill="#1ABCFE"/>
<path d="M200 633.348C200 568.898 250.95 516.648 313.75 516.648H427.5V633.348C427.5 697.748 376.55 749.998 313.75 749.998C250.95 749.998 200 697.748 200 633.348Z" fill="#0ACF83"/>
<path d="M427.5 50V283.35H541.25C604.1 283.35 655 231.1 655 166.65C655 102.25 604.1 50 541.25 50H427.5Z" fill="#FF7262"/>
<path d="M200 166.65C200 231.1 250.95 283.35 313.75 283.35H427.5V50H313.75C250.95 50 200 102.25 200 166.65Z" fill="#F24E1E"/>
<path d="M200 400.002C200 464.452 250.95 516.652 313.75 516.652H427.5V283.352H313.75C250.95 283.352 200 335.502 200 400.002Z" fill="#A259FF"/>
</g>
</svg>
