<svg width="800" height="800" viewBox="0 0 800 800" fill="none" xmlns="http://www.w3.org/2000/svg">
<rect width="800" height="800" fill="#1E1E1E"/>
<g style="mix-blend-mode:luminosity" clip-path="url(#clip0_154_2643)">
<path d="M682.67 156.82L631.166 733.795L399.654 797.978L168.779 733.885L117.33 156.82H682.67Z" fill="#E44D26"/>
<path d="M400 748.919L587.073 697.055L631.087 204.004H400V748.919Z" fill="#F16529"/>
<path d="M299.879 345.557H400V274.781H222.531L224.225 293.769L241.62 488.805H400V418.031H306.347L299.879 345.557Z" fill="#EBEBEB"/>
<path d="M315.829 524.191H244.782L254.698 635.318L399.674 675.564L400 675.474V601.839L399.69 601.921L320.868 580.638L315.829 524.191Z" fill="#EBEBEB"/>
<path d="M169.93 0H205.896V35.535H238.797V0H274.766V107.609H238.799V71.575H205.898V107.609H169.931L169.93 0Z" fill="black"/>
<path d="M322.063 35.6846H290.399V0H389.71V35.6846H358.033V107.609H322.065L322.063 35.6846Z" fill="black"/>
<path d="M405.472 0H442.976L466.045 37.8105L489.092 0H526.609V107.609H490.79V54.2719L466.045 92.5328H465.427L440.664 54.2719V107.609H405.472V0Z" fill="black"/>
<path d="M544.509 0H580.486V72.0394H631.066V107.609H544.509V0Z" fill="black"/>
<path d="M399.755 488.805H486.906L478.691 580.594L399.755 601.9V675.532L544.847 635.32L545.912 623.363L562.543 437.036L564.27 418.031H399.755V488.805Z" fill="white"/>
<path d="M399.755 345.384V345.557H570.71L572.13 329.649L575.354 293.769L577.047 274.781H399.755V345.384Z" fill="white"/>
</g>
<defs>
<clipPath id="clip0_154_2643">
<rect width="800" height="800" fill="white"/>
</clipPath>
</defs>
</svg>
