<?xml version="1.0" encoding="UTF-8"?>
<svg id="Layer_1" data-name="Layer 1" xmlns="http://www.w3.org/2000/svg" xmlns:xlink="http://www.w3.org/1999/xlink" viewBox="0 0 800 800">
  <defs>
    <style>
      .cls-1, .cls-2, .cls-3, .cls-4, .cls-5, .cls-6 {
        stroke-width: 0px;
      }

      .cls-2 {
        fill: none;
      }

      .cls-3 {
        fill: #fff;
      }

      .cls-4 {
        fill: #888;
      }

      .cls-7 {
        clip-path: url(#clippath);
      }

      .cls-5 {
        fill: #ebebeb;
      }

      .cls-6 {
        fill: #767676;
      }

      .cls-8 {
        opacity: .3;
      }
    </style>
    <clipPath id="clippath">
      <rect class="cls-2" width="800" height="800"/>
    </clipPath>
  </defs>
  <g class="cls-8">
    <g class="cls-7">
      <g>
        <path class="cls-6" d="M682.67,156.82l-51.5,576.97-231.51,64.18-230.87-64.09L117.33,156.82h565.34Z"/>
        <path class="cls-4" d="M400,748.92l187.07-51.86,44.01-493.05h-231.09v544.92Z"/>
        <path class="cls-5" d="M299.88,345.56h100.12v-70.78h-177.47l1.69,18.99,17.39,195.04h158.38v-70.77h-93.65l-6.47-72.47Z"/>
        <path class="cls-5" d="M315.83,524.19h-71.05l9.92,111.13,144.98,40.25.33-.09v-73.64l-.31.08-78.82-21.28-5.04-56.45Z"/>
        <path class="cls-1" d="M169.93,0h35.97v35.53h32.9V0h35.97v107.61h-35.97v-36.03h-32.9v36.03h-35.97V0Z"/>
        <path class="cls-1" d="M322.06,35.68h-31.66V0h99.31v35.68h-31.68v71.92h-35.97V35.68Z"/>
        <path class="cls-1" d="M405.47,0h37.5l23.07,37.81L489.09,0h37.52v107.61h-35.82v-53.34l-24.74,38.26h-.62l-24.76-38.26v53.34h-35.19V0Z"/>
        <path class="cls-1" d="M544.51,0h35.98v72.04h50.58v35.57h-86.56V0Z"/>
        <path class="cls-3" d="M399.76,488.8h87.15l-8.21,91.79-78.94,21.31v73.63l145.09-40.21,1.07-11.96,16.63-186.33,1.73-19.01h-164.52v70.77Z"/>
        <path class="cls-3" d="M399.76,345.38v.17h170.96l1.42-15.91,3.22-35.88,1.69-18.99h-177.29v70.6Z"/>
      </g>
    </g>
  </g>
</svg>