<?xml version="1.0" encoding="UTF-8"?>
<svg id="Layer_1" data-name="Layer 1" xmlns="http://www.w3.org/2000/svg" xmlns:xlink="http://www.w3.org/1999/xlink" viewBox="0 0 800 800">
  <defs>
    <style>
      .cls-1, .cls-2, .cls-3 {
        stroke-width: 0px;
      }

      .cls-2 {
        fill: none;
      }

      .cls-3 {
        fill: #d1d1d1;
      }

      .cls-4 {
        clip-path: url(#clippath);
      }

      .cls-5 {
        opacity: .3;
      }
    </style>
    <clipPath id="clippath">
      <rect class="cls-2" width="800" height="800"/>
    </clipPath>
  </defs>
  <g class="cls-5">
    <g class="cls-4">
      <g>
        <path class="cls-3" d="M680,0H120C53.73,0,0,53.73,0,120v560c0,66.27,53.73,120,120,120h560c66.27,0,120-53.73,120-120V120c0-66.27-53.73-120-120-120Z"/>
        <path class="cls-1" d="M506.25,578.12c15.62,26.56,37.5,45.31,73.44,45.31,31.25,0,51.56-15.63,51.56-37.5,0-25-20.31-34.38-54.69-50l-18.75-7.81c-54.69-23.44-90.62-51.56-90.62-112.5,0-56.25,42.19-100,109.37-100,48.44,0,82.81,17.19,106.25,60.94l-57.81,37.5c-12.5-23.44-26.56-32.81-48.44-32.81s-35.94,14.06-35.94,32.81c0,21.88,14.06,31.25,46.88,45.31l18.75,7.81c64.06,28.12,100,54.69,100,118.75s-53.12,104.69-125,104.69-115.62-32.81-137.5-76.56l62.5-35.94ZM240.62,584.38c12.5,20.31,21.88,39.06,48.44,39.06,25,0,40.63-9.38,40.63-46.88v-259.37h75v256.25c0,78.12-45.31,112.5-112.5,112.5-60.94,0-95.31-31.25-112.5-68.75l60.94-32.81Z"/>
      </g>
    </g>
  </g>
</svg>