<?xml version="1.0" encoding="UTF-8"?>
<svg id="Layer_1" data-name="Layer 1" xmlns="http://www.w3.org/2000/svg" xmlns:xlink="http://www.w3.org/1999/xlink" viewBox="0 0 1930 800">
  <defs>
    <style>
      .cls-1 {
        fill: url(#linear-gradient);
      }

      .cls-1, .cls-2, .cls-3, .cls-4, .cls-5 {
        stroke-width: 0px;
      }

      .cls-2 {
        fill: #363636;
      }

      .cls-3 {
        fill: none;
      }

      .cls-4 {
        fill: url(#linear-gradient-2);
      }

      .cls-6 {
        clip-path: url(#clippath);
      }

      .cls-7 {
        opacity: .3;
      }

      .cls-5 {
        fill: #757575;
      }
    </style>
    <clipPath id="clippath">
      <rect class="cls-3" width="1930" height="800"/>
    </clipPath>
    <linearGradient id="linear-gradient" x1="483.63" y1="583.62" x2="355.88" y2="445.84" gradientTransform="translate(0 802) scale(1 -1)" gradientUnits="userSpaceOnUse">
      <stop offset=".18" stop-color="#474747"/>
      <stop offset="1" stop-color="#757575"/>
    </linearGradient>
    <linearGradient id="linear-gradient-2" x1="336.9" y1="433.01" x2="188.81" y2="282.32" gradientTransform="translate(0 802) scale(1 -1)" gradientUnits="userSpaceOnUse">
      <stop offset=".18" stop-color="#474747"/>
      <stop offset="1" stop-color="#757575"/>
    </linearGradient>
  </defs>
  <g class="cls-7">
    <g class="cls-6">
      <g>
        <path class="cls-2" d="M987.76,153.34h71.92v349.93c0,92.27-42.79,156.69-142.02,156.69-37.33,0-66.46-6.09-86.49-13.06v-67.03c21.85,8.71,48.25,13.06,74.65,13.06,61,0,81.94-34.82,81.94-85.31V153.34Z"/>
        <path class="cls-2" d="M1191.69,126.36c28.22,0,48.25,16.54,48.25,46.14s-20.03,46.14-48.25,46.14-48.25-16.54-48.25-46.14,20.02-46.14,48.25-46.14ZM1156.18,273.47h69.19v383.01h-69.19v-383.01Z"/>
        <path class="cls-2" d="M1396.52,656.48h-67.37v-383.01h67.37v67.03c23.67-45.26,63.72-77.47,142.01-73.12v64.42c-88.3-8.7-142.01,16.54-142.01,98.36v226.33Z"/>
        <path class="cls-2" d="M1861.72,587.71c-25.49,50.49-73.74,76.6-135.65,76.6-106.51,0-160.22-86.17-160.22-199.34s56.44-199.34,168.42-199.34c58.26,0,103.78,25.24,127.45,74.86v-67.03h69.19v383.01h-69.19v-68.77ZM1744.28,603.38c61.91,0,116.53-37.43,116.53-122.74v-30.46c0-85.31-50.07-122.74-109.25-122.74-77.38,0-117.43,48.75-117.43,137.54.9,92.27,39.14,138.41,110.15,138.41Z"/>
        <path class="cls-5" d="M626.34,75h-314.99c0,74.86,63.73,135.79,142.02,135.79h58.26v53.1c0,74.86,63.73,135.79,142.02,135.79V101.11c0-14.8-11.83-26.11-27.31-26.11Z"/>
        <path class="cls-1" d="M470.66,224.72H155.67c0,74.86,63.73,135.79,142.02,135.79h58.26v53.97c0,74.86,63.73,135.79,142.02,135.79V250.83c0-13.93-11.84-26.11-27.31-26.11Z"/>
        <path class="cls-4" d="M314.99,375.31H0c0,74.86,63.73,135.79,142.02,135.79h58.26v53.1c0,74.86,63.73,135.79,142.02,135.79v-298.57c0-14.8-12.74-26.11-27.31-26.11Z"/>
      </g>
    </g>
  </g>
</svg>