<svg width="1930" height="800" viewBox="0 0 1930 800" fill="none" xmlns="http://www.w3.org/2000/svg">
<rect width="1930" height="800" fill="#1E1E1E"/>
<g style="mix-blend-mode:luminosity" clip-path="url(#clip0_154_2643)">
<path d="M987.761 153.344H1059.68V503.273C1059.68 595.543 1016.89 659.959 917.662 659.959C880.336 659.959 851.204 653.866 831.175 646.901V579.876C853.024 588.581 879.425 592.934 905.825 592.934C966.821 592.934 987.761 558.114 987.761 507.626V153.344Z" fill="#253858"/>
<path d="M1191.69 126.359C1219.91 126.359 1239.94 142.898 1239.94 172.494C1239.94 201.22 1219.91 218.63 1191.69 218.63C1163.46 218.63 1143.44 202.091 1143.44 172.494C1143.44 143.769 1163.46 126.359 1191.69 126.359ZM1156.18 273.469H1225.37V656.479H1156.18V273.469Z" fill="#253858"/>
<path d="M1396.52 656.481H1329.15V273.471H1396.52V340.498C1420.19 295.233 1460.24 263.026 1538.53 267.378V331.793C1450.23 323.088 1396.52 348.331 1396.52 430.156V656.481Z" fill="#253858"/>
<path d="M1861.72 587.712C1836.23 638.199 1787.98 664.312 1726.07 664.312C1619.56 664.312 1565.85 578.137 1565.85 464.974C1565.85 357.034 1622.29 265.637 1734.27 265.637C1792.53 265.637 1838.05 290.879 1861.72 340.497V273.469H1930.91V656.479H1861.72V587.712ZM1744.28 603.379C1806.19 603.379 1860.81 565.949 1860.81 480.642V450.177C1860.81 364.869 1810.74 327.439 1751.56 327.439C1674.18 327.439 1634.13 376.187 1634.13 464.974C1635.03 557.244 1673.27 603.379 1744.28 603.379Z" fill="#253858"/>
<path d="M626.335 75H311.347C311.347 149.861 375.072 210.794 453.364 210.794H511.627V263.893C511.627 338.753 575.355 399.688 653.647 399.688V101.114C653.647 86.3162 641.813 75 626.335 75Z" fill="#2684FF"/>
<path d="M470.663 224.719H155.673C155.673 299.579 219.399 360.512 297.692 360.512H355.955V414.482C355.955 489.342 419.683 550.277 497.975 550.277V250.832C497.975 236.905 486.139 224.719 470.663 224.719Z" fill="url(#paint0_linear_154_2643)"/>
<path d="M314.991 375.312H0C0 450.173 63.7263 511.105 142.019 511.105H200.283V564.205C200.283 639.065 264.009 699.998 342.301 699.998V401.425C342.301 386.627 329.558 375.312 314.991 375.312Z" fill="url(#paint1_linear_154_2643)"/>
</g>
<defs>
<linearGradient id="paint0_linear_154_2643" x1="491.274" y1="225.47" x2="363.527" y2="363.247" gradientUnits="userSpaceOnUse">
<stop offset="0.176" stop-color="#0052CC"/>
<stop offset="1" stop-color="#2684FF"/>
</linearGradient>
<linearGradient id="paint1_linear_154_2643" x1="344.355" y1="376.313" x2="196.265" y2="527.005" gradientUnits="userSpaceOnUse">
<stop offset="0.176" stop-color="#0052CC"/>
<stop offset="1" stop-color="#2684FF"/>
</linearGradient>
<clipPath id="clip0_154_2643">
<rect width="1930" height="800" fill="white"/>
</clipPath>
</defs>
</svg>
