<?xml version="1.0" encoding="UTF-8"?>
<svg id="Layer_1" data-name="Layer 1" xmlns="http://www.w3.org/2000/svg" xmlns:xlink="http://www.w3.org/1999/xlink" viewBox="0 0 2226 800">
  <defs>
    <style>
      .cls-1 {
        fill: #7c7c7c;
      }

      .cls-1, .cls-2, .cls-3, .cls-4, .cls-5, .cls-6, .cls-7 {
        stroke-width: 0px;
      }

      .cls-2 {
        fill: #7d7d7d;
      }

      .cls-3 {
        fill: #747474;
      }

      .cls-4 {
        fill: #bbb;
      }

      .cls-5 {
        fill: none;
      }

      .cls-6 {
        fill: #888;
      }

      .cls-8 {
        clip-path: url(#clippath);
      }

      .cls-7 {
        fill: #afafaf;
      }

      .cls-9 {
        opacity: .3;
      }
    </style>
    <clipPath id="clippath">
      <rect class="cls-5" width="2226" height="800"/>
    </clipPath>
  </defs>
  <g class="cls-9">
    <g class="cls-8">
      <g>
        <path class="cls-3" d="M1308.5,217.43c0,59.25-44.39,102.91-98.86,102.91s-98.86-43.66-98.86-102.91,44.39-102.91,98.86-102.91,98.86,43.24,98.86,102.91ZM1265.22,217.43c0-37.02-25.72-62.36-55.58-62.36s-55.58,25.33-55.58,62.36,25.72,62.36,55.58,62.36,55.58-25.75,55.58-62.36Z"/>
        <path class="cls-4" d="M1521.77,217.43c0,59.25-44.39,102.91-98.86,102.91s-98.86-43.66-98.86-102.91,44.39-102.91,98.86-102.91,98.86,43.24,98.86,102.91ZM1478.49,217.43c0-37.02-25.72-62.36-55.58-62.36s-55.58,25.33-55.58,62.36,25.72,62.36,55.58,62.36,55.58-25.75,55.58-62.36Z"/>
        <path class="cls-2" d="M1726.15,120.74v184.75c0,76-42.92,107.04-93.66,107.04-47.77,0-76.51-33.36-87.35-60.64l37.67-16.38c6.71,16.75,23.15,36.51,49.63,36.51,32.48,0,52.61-20.92,52.61-60.32v-14.8h-1.51c-9.69,12.48-28.35,23.38-51.9,23.38-49.27,0-94.41-44.82-94.41-102.49s45.14-103.28,94.41-103.28c23.51,0,42.17,10.9,51.9,23.01h1.51v-16.75h41.1v-.05ZM1688.12,217.8c0-36.24-23.15-62.73-52.61-62.73s-54.87,26.49-54.87,62.73,25.01,61.99,54.87,61.99,52.61-26.12,52.61-61.99Z"/>
        <path class="cls-1" d="M1793.9,12.45v301.58h-42.2V12.45h42.2Z"/>
        <path class="cls-3" d="M1958.39,251.3l33.59,23.38c-10.84,16.75-36.97,45.61-82.11,45.61-55.98,0-97.79-45.19-97.79-102.91,0-61.2,42.16-102.91,92.95-102.91s76.15,42.5,84.33,65.47l4.48,11.69-131.73,56.98c10.08,20.65,25.77,31.18,47.76,31.18s37.32-11.32,48.52-28.49ZM1855,214.27l88.06-38.18c-4.84-12.85-19.42-21.81-36.57-21.81-21.99,0-52.6,20.28-51.49,59.99Z"/>
        <path class="cls-2" d="M951.01,190.66v-43.66h140.89c1.38,7.61,2.09,16.61,2.09,26.35,0,32.76-8.58,73.26-36.21,102.12-26.88,29.23-61.23,44.82-106.73,44.82-84.33,0-155.24-71.73-155.24-159.79S866.73.71,951.05.71c46.65,0,79.88,19.12,104.86,44.03l-29.5,30.81c-17.91-17.54-42.17-31.18-75.4-31.18-61.58,0-109.74,51.83-109.74,116.13s48.16,116.13,109.74,116.13c39.94,0,62.69-16.75,77.27-31.97,11.81-12.34,19.59-29.97,22.66-54.05l-99.93.05Z"/>
        <path class="cls-3" d="M911.44,482.48l-43.39,125.33h88.52l-43.74-125.33h-1.4ZM830.61,716.33h-37.79l100.07-277.69h38.84l100.07,277.69h-37.79l-25.54-75.27h-111.97l-25.89,75.27Z"/>
        <path class="cls-3" d="M1049.03,526.33h32.89v26.31h1.4c5.08-9.23,13.04-16.9,23.8-23.02,10.93-6.3,22.13-9.5,33.59-9.5,22.39,0,39.53,6.76,51.43,20.1,12.07,13.15,18.2,32.06,18.2,56.64v119.48h-34.29v-116.92c-.7-31.15-15.66-46.77-44.79-46.77-13.56,0-25.02,5.85-34.29,17.54-9.1,11.51-13.65,25.12-13.65,40.92v105.23h-34.29v-190Z"/>
        <path class="cls-3" d="M1273.62,658.23c0,9.32,3.68,17.08,11.2,23.39,7.43,6.12,16.27,9.13,26.59,9.13,14.17,0,26.94-5.48,38.14-16.44,11.37-11.14,17.14-24.3,17.14-39.46-10.75-8.77-25.71-13.15-44.78-13.15-13.82,0-25.37,3.56-34.64,10.6-9.1,6.85-13.65,15.53-13.65,25.94ZM1317.71,520.11c25.19,0,44.96,7.12,59.48,21.19,14.7,14.16,22.05,33.52,22.05,58.1v116.92h-32.55v-26.31h-1.39c-14.26,21.74-33.16,32.52-56.69,32.52-20.12,0-36.91-6.21-50.38-18.64-13.3-12.42-19.95-27.86-19.95-46.4,0-19.73,7.09-35.26,21.35-46.77,14.17-11.69,33.24-17.54,57.03-17.54,20.29,0,36.91,3.84,50.03,11.33v-8.04c0-12.42-4.81-22.84-14.34-31.42-9.36-8.77-20.3-13.15-32.89-13.15-19.16,0-34.2,8.4-45.14,25.21l-30.09-19.73c16.53-24.85,41.03-37.27,73.48-37.27Z"/>
        <path class="cls-3" d="M1470.77,438.63v277.69h-34.29v-277.69h34.29Z"/>
        <path class="cls-3" d="M1672.35,526.33l-114.06,273.67h-34.99l42.34-95.73-75.23-177.94h37.09l54.23,136.65h.7l52.83-136.65h37.09Z"/>
        <path class="cls-3" d="M1766.28,719.25c-14.7,0-26.94-4.75-36.74-14.25-9.8-9.5-14.87-22.74-15.05-39.83v-106.33h-32.19v-32.52h32.19v-58.1h33.94v58.1h44.79v32.52h-44.79v94.64c0,12.7,2.28,21.38,7,25.94,4.9,4.39,10.24,6.58,16.1,6.58,2.8,0,5.42-.18,8.04-.73,2.54-.73,4.99-1.55,7.35-2.56l10.5,31.79c-8.92,3.11-19.25,4.75-31.14,4.75Z"/>
        <path class="cls-3" d="M1868.01,460.92c0,6.85-2.45,12.79-7.35,17.9-4.72,4.93-10.32,7.31-16.8,7.31-6.82,0-12.51-2.38-17.14-7.31-4.72-5.11-7-11.05-7-17.9s2.28-12.97,7-17.9c4.63-4.84,10.32-7.31,17.14-7.31s12.08,2.47,16.8,7.31c4.9,4.93,7.35,10.87,7.35,17.9ZM1861.01,526.33v190h-34.29v-190h34.29Z"/>
        <path class="cls-3" d="M1976.19,722.54c-27.12,0-49.51-9.59-67.18-28.87-17.49-19.46-26.24-43.57-26.24-72.35s8.75-53.35,26.24-72.35c17.67-19.18,40.06-28.87,67.18-28.87,18.63,0,34.82,4.93,48.64,14.62,13.73,9.77,24.14,23.2,31.14,40.19l-31.14,13.52c-9.63-23.84-26.51-35.81-50.74-35.81-15.66,0-29.22,6.58-40.59,19.73-11.19,13.15-16.79,29.51-16.79,48.96s5.6,35.81,16.79,48.96c11.37,13.15,24.93,19.73,40.59,19.73,24.93,0,42.43-11.88,52.49-35.81l30.44,13.52c-6.56,17.08-16.97,30.51-31.14,40.19-14.26,9.68-30.8,14.62-49.69,14.62Z"/>
        <path class="cls-3" d="M2226,663.71c0,16.62-7,30.6-20.99,42.02-13.83,11.14-31.15,16.81-52.14,16.81-18.19,0-34.29-5.02-48.28-14.98-13.83-9.96-23.71-23.11-29.75-39.46l30.44-13.52c4.64,11.51,11.2,20.37,19.6,26.67,8.57,6.4,17.93,9.5,27.99,9.5,10.94,0,20.03-2.38,27.29-7.31,7.44-4.84,11.2-10.69,11.2-17.54,0-12.15-9.01-21.01-26.94-26.67l-31.14-8.04c-35.52-9.5-53.19-27.4-53.19-53.71,0-17.27,6.74-31.15,20.3-41.65,13.47-10.41,30.79-15.71,51.78-15.71,16.1,0,30.62,4.02,43.74,12.06,13.03,8.04,22.13,18.82,27.29,32.15l-30.44,13.15c-3.5-8.04-9.27-14.25-17.15-18.64-7.69-4.57-16.35-6.94-25.89-6.94-8.92,0-16.97,2.38-24.14,6.94-7,4.66-10.5,10.41-10.5,17.17,0,10.78,9.8,18.54,29.39,23.38l27.3,7.31c36.12,9.32,54.23,28.32,54.23,57Z"/>
        <path class="cls-7" d="M469.67,93.63v588.55c0,65.91,43.5,102.55,89.66,102.55,42.7,0,89.66-31.21,89.66-102.55V98.09c0-60.33-42.7-98.09-89.66-98.09s-89.66,41.66-89.66,93.63Z"/>
        <path class="cls-6" d="M234.84,392.37v289.82c0,65.91,43.5,102.55,89.66,102.55,42.7,0,89.67-31.21,89.67-102.55v-285.36c0-60.33-42.7-98.09-89.67-98.09s-89.66,41.66-89.66,93.63Z"/>
        <path class="cls-6" d="M179.33,691.1c0,51.69-40.16,93.63-89.66,93.63S0,742.79,0,691.1s40.16-93.63,89.66-93.63,89.66,41.94,89.66,93.63Z"/>
      </g>
    </g>
  </g>
</svg>