<?xml version="1.0" encoding="UTF-8"?>
<svg id="katman_1" data-name="katman 1" xmlns="http://www.w3.org/2000/svg" viewBox="0 0 737.33 269.34">
  <defs>
    <style>
      .cls-1 {
        fill: #d5d5d5;
      }

      .cls-1, .cls-2, .cls-3 {
        opacity: .3;
        stroke-width: 0px;
      }

      .cls-2 {
        fill: #1b1b1b;
      }

      .cls-3 {
        fill: #1d1d1d;
        fill-rule: evenodd;
      }
    </style>
  </defs>
  <path class="cls-2" d="M558.36,137.32v59.56h24.4v-55.91c0-24.9,33.9-24.95,33.9-24.95v-24.24s-9.48.42-16.97,2.11c-21.22,4.78-41.33,15.26-41.33,43.42Z"/>
  <path class="cls-2" d="M374.43,90.6c9.5,0,21.38,5.38,27.84,14.84,6.69-8.6,17.7-14.4,31.31-14.63,17.28-.22,38.65,10.53,38.65,42.8v63.21h-24.4v-63.22c0-10.75-7.77-18.49-19.42-18.49s-19.42,7.74-19.42,18.49v63.21h-24.4v-63.21c0-10.75-7.77-18.49-19.42-18.49s-19.65,7.74-19.65,18.49v63.21h-25.66v-103.02h25.66v10.35c6.91-8.39,17.05-13.56,28.93-13.56h-.01Z"/>
  <path class="cls-2" d="M528.35,95.11v101.78h-24.82v-101.78h24.82Z"/>
  <path class="cls-2" d="M515.94,78.91c7.66,0,13.85-6.17,13.85-13.79s-6.21-13.78-13.85-13.78-13.85,6.17-13.85,13.78,6.2,13.79,13.85,13.79Z"/>
  <path class="cls-2" d="M682.93,90.37c-30.05,0-54.4,24.24-54.4,54.13s24.36,54.13,54.4,54.13,54.4-24.24,54.4-54.13-24.36-54.13-54.4-54.13ZM682.93,174.3c-17.01,0-30.8-13.72-30.8-30.65s13.79-30.65,30.8-30.65,30.8,13.72,30.8,30.65-13.78,30.65-30.8,30.65Z"/>
  <path class="cls-1" d="M0,67.33C0,30.15,30.15,0,67.33,0h134.67c37.19,0,67.33,30.15,67.33,67.33v134.67c0,37.19-30.15,67.33-67.33,67.33H67.33C30.15,269.34,0,239.18,0,202V67.33Z"/>
  <path class="cls-3" d="M179.07,51.34h-24.45l20.38,35.8-44.83-35.8h-24.45l22.41,43.75-46.86-43.75h-24.45l24.45,55.7-24.45,111.38h24.45l46.86-119.33-22.41,119.33h24.45l44.83-127.29-20.38,127.29h24.45l44.83-139.24-44.83-27.84Z"/>
</svg>