<svg width="800" height="800" viewBox="0 0 800 800" fill="none" xmlns="http://www.w3.org/2000/svg">
<rect width="800" height="800" fill="#1E1E1E"/>
<g style="mix-blend-mode:luminosity">
<path d="M400 461.852C434.518 461.852 462.5 433.869 462.5 399.352C462.5 364.834 434.518 336.852 400 336.852C365.482 336.852 337.5 364.834 337.5 399.352C337.5 433.869 365.482 461.852 400 461.852Z" fill="#00D8FF"/>
<path d="M400 542.652C324.878 544.469 249.945 534.343 178 512.652C144.766 502.116 113.768 485.52 86.575 463.702C76.1982 456.248 67.5568 446.638 61.2436 435.53C54.9303 424.423 51.0947 412.081 50 399.352C50 358.027 95.4 317.527 171.45 291.027C245.318 267.546 322.498 256.165 400 257.327C476.468 256.258 552.614 267.433 625.55 290.427C657.557 300.631 687.503 316.425 714 337.077C724.199 344.183 732.711 353.445 738.932 364.207C745.154 374.969 748.932 386.967 750 399.352C750 442.302 699.25 485.827 617.5 512.877C546.948 533.861 473.596 543.903 400 542.652ZM400 287.227C325.853 286.236 252.021 297.054 181.275 319.277C111.275 343.702 79.9 377.102 79.9 399.277C79.9 422.477 113.625 458.952 187.675 484.277C256.502 504.923 328.165 514.534 400 512.752C470.41 514.011 540.598 504.484 608.125 484.502C685 459.027 720 422.502 720 399.352C718.739 391.407 715.844 383.811 711.497 377.042C707.151 370.274 701.449 364.48 694.75 360.027C671.044 341.705 644.292 327.708 615.725 318.677C545.951 296.771 473.124 286.154 400 287.227Z" fill="#00D8FF"/>
<path d="M258 711.076C246.338 711.343 234.813 708.514 224.6 702.876C188.8 682.226 176.4 622.676 191.425 543.551C207.991 467.828 236.695 395.283 276.425 328.726C313.693 261.953 361.405 201.574 417.75 149.876C442.579 127.243 471.222 109.189 502.35 96.5508C513.609 91.2743 525.891 88.5391 538.325 88.5391C550.759 88.5391 563.041 91.2743 574.3 96.5508C611.525 118.001 623.85 183.701 606.475 268.026C589.397 339.64 561.439 408.212 523.575 471.351C487.618 537.335 441.409 597.189 386.675 648.676C360.945 672.195 331.083 690.75 298.6 703.401C285.596 708.227 271.869 710.822 258 711.076ZM302.325 343.576C264.427 407.309 236.917 476.668 220.825 549.051C207 621.926 220.275 665.751 239.575 676.901C259.575 688.476 308.125 677.501 367.075 626.001C419.326 576.675 463.431 519.381 497.75 456.251C534.023 395.889 560.842 330.329 577.275 261.851C593.625 182.476 579.5 133.876 559.45 122.326C551.935 119.446 543.905 118.158 535.867 118.541C527.828 118.924 519.957 120.97 512.75 124.551C485.042 135.984 459.568 152.217 437.5 172.501C383.667 222.021 338.092 279.824 302.5 343.726L302.325 343.576Z" fill="#00D8FF"/>
<path d="M541.925 711.401C508.05 711.401 465.025 690.901 420.225 652.376C362.892 600.208 314.374 539.111 276.55 471.451C237.318 405.81 208.842 334.315 192.2 259.676C184.983 226.839 183.645 192.981 188.25 159.676C189.314 147.322 193.076 135.351 199.271 124.608C205.465 113.865 213.941 104.612 224.1 97.5014C261.275 75.9764 324.35 98.1014 388.725 155.251C442.24 205.806 487.685 264.269 523.475 328.601C562.682 392.71 591.458 462.64 608.725 535.776C616.253 569.819 617.414 604.961 612.15 639.426C610.897 652.137 606.911 664.426 600.464 675.451C594.017 686.476 585.263 695.977 574.8 703.301C564.754 708.869 553.408 711.665 541.925 711.401ZM302.425 456.401C338.711 521.062 385.057 579.535 439.725 629.626C495.95 678.001 540.55 688.401 559.725 677.126C579.725 665.501 594.475 618.051 579.275 541.276C562.622 471.45 535.022 404.699 497.5 343.501C463.346 281.929 419.968 225.948 368.875 177.501C308.275 123.701 259.125 111.676 239.1 123.276C232.859 128.348 227.737 134.66 224.058 141.811C220.378 148.963 218.222 156.799 217.725 164.826C213.75 194.529 215.045 224.699 221.55 253.951C237.557 325.33 264.868 393.692 302.45 456.451L302.425 456.401Z" fill="#00D8FF"/>
</g>
</svg>
