<?xml version="1.0" encoding="UTF-8"?>
<svg id="Layer_1" data-name="Layer 1" xmlns="http://www.w3.org/2000/svg" viewBox="0 0 700 622.88">
  <defs>
    <style>
      .cls-1 {
        fill: #9b9b9b;
        stroke-width: 0px;
      }

      .cls-2 {
        opacity: .3;
      }
    </style>
  </defs>
  <g class="cls-2">
    <path class="cls-1" d="M350,373.31c34.52,0,62.5-27.98,62.5-62.5s-27.98-62.5-62.5-62.5-62.5,27.98-62.5,62.5,27.98,62.5,62.5,62.5Z"/>
    <path class="cls-1" d="M350,454.11c-75.12,1.82-150.05-8.31-222-30-33.23-10.54-64.23-27.13-91.43-48.95-10.38-7.45-19.02-17.06-25.33-28.17-6.31-11.11-10.15-23.45-11.24-36.18,0-41.32,45.4-81.82,121.45-108.32,73.87-23.48,151.05-34.86,228.55-33.7,76.47-1.07,152.61,10.11,225.55,33.1,32.01,10.2,61.95,26,88.45,46.65,10.2,7.11,18.71,16.37,24.93,27.13,6.22,10.76,10,22.76,11.07,35.14,0,42.95-50.75,86.48-132.5,113.53-70.55,20.98-143.9,31.03-217.5,29.77ZM350,198.69c-74.15-.99-147.98,9.83-218.73,32.05-70,24.42-101.37,57.82-101.37,80s33.72,59.67,107.78,85c68.83,20.65,140.49,30.26,212.32,28.48,70.41,1.26,140.6-8.27,208.12-28.25,76.88-25.48,111.88-62,111.88-85.15-1.26-7.94-4.16-15.54-8.5-22.31-4.35-6.77-10.05-12.56-16.75-17.01-23.71-18.32-50.46-32.32-79.03-41.35-69.77-21.91-142.6-32.52-215.72-31.45Z"/>
    <path class="cls-1" d="M208,622.54c-11.66.27-23.19-2.56-33.4-8.2-35.8-20.65-48.2-80.2-33.18-159.32,16.57-75.72,45.27-148.27,85-214.83,37.27-66.77,84.98-127.15,141.33-178.85,24.83-22.63,53.47-40.69,84.6-53.33,11.26-5.28,23.54-8.01,35.98-8.01s24.72,2.74,35.97,8.01c37.23,21.45,49.55,87.15,32.17,171.48-17.08,71.61-45.04,140.19-82.9,203.33-35.96,65.98-82.17,125.84-136.9,177.33-25.73,23.52-55.59,42.07-88.07,54.72-13,4.83-26.73,7.42-40.6,7.67ZM252.33,255.04c-37.9,63.73-65.41,133.09-81.5,205.48-13.82,72.88-.55,116.7,18.75,127.85,20,11.58,68.55.6,127.5-50.9,52.25-49.33,96.36-106.62,130.67-169.75,36.27-60.36,63.09-125.92,79.53-194.4,16.35-79.38,2.22-127.98-17.83-139.53-7.52-2.88-15.54-4.17-23.58-3.78-8.04.38-15.91,2.43-23.12,6.01-27.71,11.43-53.18,27.67-75.25,47.95-53.83,49.52-99.41,107.32-135,171.23l-.17-.15Z"/>
    <path class="cls-1" d="M491.92,622.86c-33.88,0-76.9-20.5-121.7-59.03-57.33-52.17-105.85-113.26-143.68-180.92-39.23-65.64-67.71-137.14-84.35-211.77-7.22-32.84-8.55-66.69-3.95-100,1.06-12.35,4.83-24.32,11.02-35.07,6.19-10.74,14.67-20,24.83-27.11,37.17-21.53,100.25.6,164.62,57.75,53.51,50.55,98.96,109.02,134.75,173.35,39.21,64.11,67.98,134.04,85.25,207.17,7.53,34.04,8.69,69.18,3.43,103.65-1.25,12.71-5.24,25-11.69,36.02-6.45,11.03-15.2,20.53-25.66,27.85-10.05,5.57-21.39,8.36-32.88,8.1ZM252.42,367.86c36.29,64.66,82.63,123.13,137.3,173.22,56.23,48.38,100.82,58.78,120,47.5,20-11.62,34.75-59.07,19.55-135.85-16.65-69.83-44.25-136.58-81.78-197.77-34.15-61.57-77.53-117.55-128.62-166-60.6-53.8-109.75-65.83-129.77-54.23-6.24,5.07-11.36,11.38-15.04,18.54-3.68,7.15-5.84,14.99-6.33,23.01-3.98,29.7-2.68,59.87,3.82,89.12,16.01,71.38,43.32,139.74,80.9,202.5l-.03-.05Z"/>
  </g>
</svg>