<?xml version="1.0" encoding="UTF-8"?>
<svg id="Layer_1" data-name="Layer 1" xmlns="http://www.w3.org/2000/svg" xmlns:xlink="http://www.w3.org/1999/xlink" viewBox="0 0 800 800">
  <defs>
    <style>
      .cls-1 {
        fill: none;
      }

      .cls-1, .cls-2 {
        stroke-width: 0px;
      }

      .cls-3 {
        clip-path: url(#clippath);
      }

      .cls-2 {
        fill: #8a8a8a;
      }

      .cls-4 {
        opacity: .3;
      }
    </style>
    <clipPath id="clippath">
      <rect class="cls-1" width="800" height="800"/>
    </clipPath>
  </defs>
  <g class="cls-4">
    <g class="cls-3">
      <path class="cls-2" d="M353.75,798.59c-36.83-7.33-68.62-32.51-84.08-66.61-6.8-15-9.69-29.17-9.64-47.24.14-51.93,32.79-95.29,83.52-110.92,9.35-2.88,15.51-3.64,29.84-3.68,9.93-.02,20.89.5,24.34,1.17l6.28,1.22,7.73-15.01c15.79-30.66,40.39-54.74,72.2-70.67,26.24-13.14,42.73-16.96,73.19-16.96,21.34,0,26.29.51,40.05,4.16,59.44,15.75,105.77,62.4,120.35,121.18,3.65,14.72,5.47,47.72,3.35,60.67l-1.45,8.84,8.32,1.86c20.86,4.67,38.87,19.25,48.08,38.92,9.1,19.46,7.44,44.63-4.17,63.02-5.93,9.39-17.54,19.82-27.24,24.46-4.97,2.38-10.26,4.97-11.76,5.76-3.37,1.77-370,1.61-378.91-.16ZM734.9,776.89c10.32-5.13,20.52-16.6,24.76-27.83,8.8-23.3-2.94-50.38-26.35-60.79-5.91-2.63-10.33-3.24-22.66-3.12-8.42.08-15.31-.45-15.31-1.18s1.57-7.56,3.48-15.19c4.89-19.51,4.84-50.62-.11-69.62-10.92-41.9-39.24-76.84-77.97-96.22-17.02-8.52-33.21-12.41-55.33-13.31-32.73-1.34-55.58,3.82-80.76,18.23-29.36,16.8-54.67,47.24-64.49,77.56-1.89,5.83-4.17,10.59-5.08,10.58-.91-.01-6.25-1.53-11.86-3.38-15.62-5.14-42.26-4.83-57.85.68-15.69,5.54-26.99,12.65-38.75,24.38-17.63,17.58-27.42,41.53-27.42,67.08,0,37.94,20.9,71.21,54.9,87.38,19.54,9.29,12.78,9.02,211.26,8.71l182.18-.28,7.37-3.66ZM209.26,703.45c-65.91-8.93-116.64-25.48-154.17-50.29-15.48-10.24-26.17-21.69-32.2-34.49l-4.49-9.54.41-258.24.41-258.24,3.75-7.04c9.48-17.78,27.96-32.96,57.38-47.12C117.56,20.6,160.47,9.4,220.25,2c24.62-3.05,108.23-2.51,133.5.86,93.05,12.41,165.25,42.81,188.27,79.27,9.07,14.37,8.84,9.16,8.84,196.89v172.36l-5.1.79c-2.81.43-9.17,1.22-14.13,1.75-51.24,5.47-104.38,40.89-131.61,87.74l-5.58,9.59-21.91,1.03c-25.89,1.22-39.07,4.54-58.76,14.77-33.79,17.57-57.94,48.03-67.79,85.49-2.72,10.35-3.52,17.85-3.58,33.37l-.12,20.03-8.68-.19c-4.77-.1-15.75-1.14-24.38-2.31h.04ZM343.25,465.43c-12.36-10.49-23.06-19.58-23.76-20.21-.71-.62,1.86-2.97,5.71-5.23,8.52-5,19.5-16.95,24.16-26.32,11.39-22.89,11.13-51.36-.66-74.01-12.97-24.92-40.12-37.99-70.87-34.13-16.84,2.11-27.39,6.84-38.52,17.25-17.56,16.43-23.64,32.55-22.72,60.21.53,15.73,1.09,18.56,5.58,28.1,9.68,20.55,29.92,35.9,50.54,38.35,7.76.92,8.43,1.43,23.85,18.01l15.86,17.06h53.31l-22.48-19.08ZM275.99,411.87c-10.8-5.48-14.9-14.87-14.9-34.12,0-12.52.61-16.18,3.68-22.44,4.93-10,14.74-16.01,24.38-14.93,9.47,1.07,14.4,4.9,19.41,15.1,3.8,7.74,4.35,10.68,4.31,23.01,0,15.21-2.75,23.01-10.4,30.13-7.99,7.43-16.23,8.45-26.48,3.25ZM167.31,448.32c28.4-6.55,43.83-30.34,35.65-54.96-4.12-12.4-12.82-20.14-34.08-30.32-9.82-4.7-18.6-9.51-19.51-10.68-3.57-4.59-3.57-7.63,0-11.81,5.53-6.43,18.12-6.74,35.17-.86l13,4.49-.44-17.36-.45-17.36-8.64-2.05c-13.06-3.11-41.3-2.95-52.41.28-22.27,6.49-34.01,21.05-33.94,42.1.11,21.66,9.83,31.93,44.2,46.51,14.54,6.17,16.2,17.7,3.21,22.21-6.01,2.09-7.73,2.05-17.24-.41-5.81-1.5-14.63-4.84-19.6-7.41l-9.03-4.68v37.58l9.03,2.51c4.97,1.38,9.74,2.76,10.6,3.06,3.59,1.25,38.21.6,44.43-.84h.04ZM470.75,431.89v-16.49h-50.26v-108.37h-40.84v141.35h91.09v-16.49ZM349.82,149.13c40.96-4.75,74.56-13.33,95.8-24.47,13.95-7.32,17.3-9.96,22.67-17.86,16.59-24.45-20.56-49.02-92.55-61.24-67.64-11.48-156.78-8.88-213.84,6.23-117.72,31.18-71.31,88.46,80.82,99.76,24.97,1.85,81.25.59,107.1-2.41Z"/>
    </g>
  </g>
</svg>